<?xml version="1.0" encoding="UTF-8"?><svg xmlns="http://www.w3.org/2000/svg" xmlns:xlink="http://www.w3.org/1999/xlink" clip-rule="evenodd" stroke-miterlimit="4.00" viewBox="0 0 1024 768"><desc>SVG generated by Keynote</desc><defs></defs><g transform="matrix(1.00, 0.00, -0.00, -1.00, 0.0, 768.0)"><path d="M 0.0 0.0 L 1024.0 0.0 L 1024.0 768.0 L 0.0 768.0 Z M 0.0 0.0 " fill="#212121"></path><path d="M 0.0 0.0 L 960.0 0.0 " fill="none" stroke="#A6AAA8" stroke-width="3.00" transform="matrix(1.00, 0.00, 0.00, -1.00, 32.0, 284.5)"></path><text xml:space="preserve" font-family="DINCondensed-Bold" font-weight="bold" font-size="170.0" fill="#34A4DA" transform="matrix(1.00, 0.00, -0.00, -1.00, 36.0, 137.0)">D</text><text xml:space="preserve" font-family="DINCondensed-Bold" font-weight="bold" font-size="170.0" fill="#34A4DA" transform="matrix(1.00, 0.00, -0.00, -1.00, 108.4, 137.0)">O</text><text xml:space="preserve" font-family="DINCondensed-Bold" font-weight="bold" font-size="170.0" fill="#34A4DA" transform="matrix(1.00, 0.00, -0.00, -1.00, 180.8, 137.0)">M</text><text xml:space="preserve" font-family="DINAlternate-Bold" font-weight="bold" font-size="54.0" fill="#A6AAA9" transform="matrix(1.00, 0.00, -0.00, -1.00, 36.0, 306.0)">D</text><text xml:space="preserve" font-family="DINAlternate-Bold" font-weight="bold" font-size="54.0" fill="#A6AAA9" transform="matrix(1.00, 0.00, -0.00, -1.00, 70.0, 306.0)">O</text><text xml:space="preserve" font-family="DINAlternate-Bold" font-weight="bold" font-size="54.0" fill="#A6AAA9" transform="matrix(1.00, 0.00, -0.00, -1.00, 102.9, 306.0)">M</text><text xml:space="preserve" font-family="DINAlternate-Bold" font-weight="bold" font-size="54.0" fill="#A6AAA9" transform="matrix(1.00, 0.00, -0.00, -1.00, 143.8, 306.0)">A</text><text xml:space="preserve" font-family="DINAlternate-Bold" font-weight="bold" font-size="54.0" fill="#A6AAA9" transform="matrix(1.00, 0.00, -0.00, -1.00, 176.8, 306.0)">I</text><text xml:space="preserve" font-family="DINAlternate-Bold" font-weight="bold" font-size="54.0" fill="#A6AAA9" transform="matrix(1.00, 0.00, -0.00, -1.00, 190.7, 306.0)">N</text><text xml:space="preserve" font-family="DINAlternate-Bold" font-weight="bold" font-size="54.0" fill="#A6AAA9" transform="matrix(1.00, 0.00, -0.00, -1.00, 227.6, 306.0)"> </text><text xml:space="preserve" font-family="DINAlternate-Bold" font-weight="bold" font-size="54.0" fill="#A6AAA9" transform="matrix(1.00, 0.00, -0.00, -1.00, 240.6, 306.0)">O</text><text xml:space="preserve" font-family="DINAlternate-Bold" font-weight="bold" font-size="54.0" fill="#A6AAA9" transform="matrix(1.00, 0.00, -0.00, -1.00, 273.5, 306.0)">B</text><text xml:space="preserve" font-family="DINAlternate-Bold" font-weight="bold" font-size="54.0" fill="#A6AAA9" transform="matrix(1.00, 0.00, -0.00, -1.00, 306.4, 306.0)">J</text><text xml:space="preserve" font-family="DINAlternate-Bold" font-weight="bold" font-size="54.0" fill="#A6AAA9" transform="matrix(1.00, 0.00, -0.00, -1.00, 332.4, 306.0)">E</text><text xml:space="preserve" font-family="DINAlternate-Bold" font-weight="bold" font-size="54.0" fill="#A6AAA9" transform="matrix(1.00, 0.00, -0.00, -1.00, 362.4, 306.0)">C</text><text xml:space="preserve" font-family="DINAlternate-Bold" font-weight="bold" font-size="54.0" fill="#A6AAA9" transform="matrix(1.00, 0.00, -0.00, -1.00, 392.5, 306.0)">T</text><text xml:space="preserve" font-family="DINAlternate-Bold" font-weight="bold" font-size="54.0" fill="#A6AAA9" transform="matrix(1.00, 0.00, -0.00, -1.00, 419.5, 306.0)"> </text><text xml:space="preserve" font-family="DINAlternate-Bold" font-weight="bold" font-size="54.0" fill="#A6AAA9" transform="matrix(1.00, 0.00, -0.00, -1.00, 432.4, 306.0)">M</text><text xml:space="preserve" font-family="DINAlternate-Bold" font-weight="bold" font-size="54.0" fill="#A6AAA9" transform="matrix(1.00, 0.00, -0.00, -1.00, 473.3, 306.0)">O</text><text xml:space="preserve" font-family="DINAlternate-Bold" font-weight="bold" font-size="54.0" fill="#A6AAA9" transform="matrix(1.00, 0.00, -0.00, -1.00, 506.2, 306.0)">D</text><text xml:space="preserve" font-family="DINAlternate-Bold" font-weight="bold" font-size="54.0" fill="#A6AAA9" transform="matrix(1.00, 0.00, -0.00, -1.00, 540.2, 306.0)">E</text><text xml:space="preserve" font-family="DINAlternate-Bold" font-weight="bold" font-size="54.0" fill="#A6AAA9" transform="matrix(1.00, 0.00, -0.00, -1.00, 570.3, 306.0)">L</text></g></svg>